<?xml version="1.0" standalone="no"?>
<!DOCTYPE svg PUBLIC "-//W3C//DTD SVG 20010904//EN"
 "http://www.w3.org/TR/2001/REC-SVG-20010904/DTD/svg10.dtd">
<svg version="1.0" xmlns="http://www.w3.org/2000/svg"
 width="512.000000pt" height="512.000000pt" viewBox="0 0 512.000000 512.000000"
 preserveAspectRatio="xMidYMid meet">

<g transform="translate(0.000000,512.000000) scale(0.100000,-0.100000)"
fill="#000000" stroke="none">
<path d="M4055 5101 c-43 -21 -602 -529 -623 -567 -16 -30 -6 -70 21 -89 51
-36 60 -29 367 253 161 147 300 267 309 267 51 0 -3 -64 -694 -815 -390 -424
-720 -786 -732 -803 -41 -57 -32 -91 54 -196 103 -126 120 -311 42 -463 -12
-23 -66 -87 -120 -142 l-98 -101 -476 475 -475 475 93 93 c69 70 110 102 163
128 158 79 324 58 468 -59 77 -62 99 -71 142 -57 37 12 820 725 842 766 16 30
6 70 -21 89 -51 36 -55 33 -461 -340 l-387 -355 -42 34 c-96 78 -213 117 -352
117 -199 0 -319 -64 -533 -285 -100 -103 -110 -127 -72 -176 l19 -25 -264
-265 -265 -266 0 -47 c0 -27 6 -60 14 -75 8 -15 98 -110 200 -212 l186 -185 0
-281 c0 -280 0 -281 23 -302 29 -27 67 -28 98 -3 24 19 24 22 27 227 l3 207
158 -156 c143 -143 161 -157 193 -157 43 0 71 28 71 71 0 27 -48 79 -411 442
l-412 412 243 243 242 242 55 -55 54 -55 -87 -89 c-91 -93 -102 -116 -72 -158
19 -26 59 -37 88 -22 12 6 57 46 100 87 l77 77 67 -68 68 -67 -77 -77 c-42
-43 -82 -90 -87 -105 -20 -52 15 -98 74 -98 19 0 49 23 113 85 l88 84 67 -67
66 -66 -84 -87 c-70 -71 -85 -92 -85 -118 0 -41 31 -71 72 -71 27 0 46 14 118
85 l86 85 54 -55 54 -55 -176 -177 c-96 -98 -179 -188 -182 -200 -8 -26 16
-78 39 -87 44 -16 62 -3 241 175 180 179 182 181 205 165 13 -9 37 -16 54 -16
27 0 51 20 176 147 115 117 151 162 177 214 104 215 76 437 -82 644 -6 9 205
245 689 771 383 417 711 777 727 799 27 36 29 46 26 105 -4 79 -31 123 -92
151 -52 24 -100 24 -151 0z"/>
<path d="M2294 1939 c-18 -20 -19 -43 -22 -332 -3 -302 -4 -313 -24 -334 -26
-28 -68 -30 -99 -4 -22 18 -24 28 -30 143 -6 134 -15 162 -71 218 -87 87 -235
84 -319 -7 -60 -64 -64 -80 -67 -308 -1 -115 -5 -220 -8 -233 -11 -50 -109
-59 -134 -12 -6 10 -10 97 -10 193 0 97 -5 187 -11 205 -13 37 -54 57 -90 43
-50 -18 -51 -24 -47 -260 l3 -219 30 -44 c38 -54 82 -84 143 -97 92 -19 180
17 237 97 l30 44 5 234 c5 224 6 234 27 255 31 32 80 30 110 -5 21 -24 23 -37
23 -124 0 -121 11 -162 58 -214 73 -81 174 -100 270 -52 70 35 110 93 123 178
6 35 9 187 7 339 -3 254 -4 277 -22 296 -26 29 -86 29 -112 0z"/>
<path d="M841 781 c-11 -11 -23 -36 -27 -57 -8 -44 3 -221 18 -284 37 -158
158 -306 308 -378 47 -22 112 -45 144 -51 38 -7 274 -11 650 -11 650 0 669 2
793 61 94 44 216 167 262 263 38 81 61 176 61 264 l0 62 84 0 c92 0 141 13
156 40 17 31 11 65 -13 88 l-23 22 -1197 0 c-1172 0 -1197 0 -1216 -19z m2056
-208 c-4 -43 -13 -101 -21 -128 -33 -108 -140 -221 -253 -266 l-58 -24 -600
-3 c-683 -3 -694 -2 -802 68 -129 85 -202 228 -203 403 l0 27 971 0 972 0 -6
-77z"/>
</g>
</svg>
